<?xml version="1.0" encoding="UTF-8" standalone="no"?>
<!-- Generator: Adobe Illustrator 24.0.2, SVG Export Plug-In . SVG Version: 6.00 Build 0)  -->

<svg
   version="1.1"
   id="Calque_1"
   x="0px"
   y="0px"
   viewBox="0 0 390.90921 305.5751"
   xml:space="preserve"
   width="390.90921"
   height="305.5751"
   xmlns="http://www.w3.org/2000/svg"
   xmlns:svg="http://www.w3.org/2000/svg"><defs
   id="defs26" />
<style
   type="text/css"
   id="style1">
	.st0{fill:#040606;}
	.st1{fill:#1E3922;}
	.st2{fill:#714228;}
	.st3{fill:#E6AF24;}
</style>











<g
   id="g27"
   transform="translate(-310.33219,-256.7149)"><path
     class="st1"
     d="m 690.2,349.64 c -9.74,-9.38 -23.6,-11.86 -32.85,-12.38 l -0.01,-0.12 h -3.58 c -0.46,0 -0.89,0 -1.31,0 H 470.87 c -2.93,0 -5.66,1.45 -7.3,3.88 -1.63,2.42 -1.96,5.48 -0.86,8.19 15.51,38.44 -5.88,56.1 -15.79,61.9 0,0 0,0 0,0 -2.49,1.46 -4.11,4.05 -4.33,6.93 -0.21,2.89 1,5.7 3.26,7.52 53.31,43.06 33.4,84.47 22.36,100.28 -1.93,2.76 -2.11,6.32 -0.47,9.28 1.57,2.83 4.47,4.54 7.67,4.54 0.15,0 0.3,0 0.45,-0.01 60.42,-3.04 107.02,-22.95 138.52,-59.17 16.82,-19.33 27.25,-40.89 33.71,-61.11 25.28,-1.39 51.27,-11.71 53.01,-37.13 0.93,-13.77 -2.73,-24.74 -10.9,-32.6 z m -85.02,123 c -28.15,32.32 -69.68,50.65 -123.51,54.55 11.13,-19.01 27.54,-63.46 -24.74,-108.12 13.99,-9.59 21.92,-23.39 23.01,-40.16 0.75,-11.65 -1.9,-22.47 -4.34,-29.68 h 170.44 c 0.39,18.29 -1.6,78.35 -40.86,123.41 z m 83.86,-91.22 c -1.3,18.97 -24.07,24.13 -37.4,25.53 6.32,-25.2 6.8,-46.92 6.54,-57.51 7.24,0.56 17.1,2.57 23.68,8.94 5.52,5.34 7.87,12.88 7.18,23.04 z"
     id="path10"
     style="fill:#f9f9f9" /><path
     class="st2"
     d="m 587.66,469.82 c -2.58,-2.12 -6.39,-1.74 -8.5,0.84 -0.18,0.22 -18.55,22.21 -51.78,28.11 -3.29,0.58 -5.47,3.72 -4.89,7 0.39,2.21 1.94,3.92 3.91,4.63 0.96,0.35 2.02,0.45 3.1,0.26 37.57,-6.68 58.15,-31.3 59.01,-32.34 2.11,-2.57 1.73,-6.38 -0.85,-8.5 z"
     id="path11"
     style="fill:#f9f9f9" /><path
     class="st2"
     d="m 502.17,510.47 c -0.65,-3.27 1.48,-6.45 4.76,-7.1 l 2.48,-0.49 c 3.27,-0.65 6.45,1.48 7.1,4.76 0.11,0.58 0.14,1.15 0.09,1.7 -0.23,2.61 -2.15,4.86 -4.85,5.39 l -2.48,0.49 c -3.28,0.65 -6.46,-1.48 -7.1,-4.75 z"
     id="path12"
     style="fill:#f9f9f9" /><path
     class="st2"
     d="m 599.83,455.1 c -2.61,-2.08 -6.41,-1.66 -8.49,0.95 l -1.58,1.97 c -2.08,2.61 -1.66,6.41 0.95,8.49 0.46,0.37 0.95,0.65 1.47,0.87 2.42,1 5.31,0.33 7.02,-1.82 l 1.58,-1.97 c 2.08,-2.6 1.66,-6.41 -0.95,-8.49 z"
     id="path13"
     style="fill:#f9f9f9" /><path
     class="st1"
     d="m 491.36,320.01 c -2.89,1.67 -3.88,5.36 -2.21,8.25 1.12,1.94 3.15,3.02 5.24,3.02 1.02,0 2.06,-0.26 3.01,-0.81 1.01,-0.58 9.95,-6 12.39,-16.45 1.61,-6.9 -0.01,-14.07 -4.83,-21.29 -9.65,-14.48 -0.86,-25.53 -0.41,-26.08 2.14,-2.53 1.84,-6.32 -0.68,-8.48 -2.53,-2.17 -6.34,-1.88 -8.52,0.65 -5.35,6.25 -12.33,22.77 -0.44,40.61 2.87,4.3 3.92,8.26 3.13,11.76 -1.24,5.51 -6.66,8.81 -6.68,8.82 z"
     id="path14"
     style="fill:#f9f9f9" /><g
     id="g15"
     style="fill:#f9f9f9">
	<path
   class="st3"
   d="m 407.34,329.28 c -0.22,0.61 -0.6,1.15 -1.1,1.56 -0.67,0.56 -1.51,0.85 -2.36,0.85 -0.43,0 -0.86,-0.07 -1.27,-0.23 -0.93,-0.34 -1.66,-1.02 -2.08,-1.91 -0.41,-0.89 -0.45,-1.88 -0.11,-2.8 0.06,-0.19 0.73,-2.37 -0.17,-4.14 -0.6,-1.17 -1.88,-2.05 -3.82,-2.62 -9.72,-2.89 -12.18,-11.07 -12.12,-14.99 0.03,-2.02 1.68,-3.63 3.69,-3.63 h 0.05 c 2.02,0.03 3.65,1.69 3.63,3.71 0.01,0.22 0.13,5.84 6.85,7.84 3.98,1.18 6.78,3.34 8.32,6.41 2.33,4.65 0.69,9.42 0.49,9.95 z"
   id="path15"
   style="fill:#f9f9f9" />
</g><g
     id="g16"
     style="fill:#f9f9f9">
	<path
   class="st3"
   d="m 430.22,329.73 c -0.3,0.57 -0.75,1.05 -1.3,1.4 -0.59,0.37 -1.28,0.56 -1.96,0.56 -0.59,0 -1.19,-0.14 -1.73,-0.43 -0.87,-0.46 -1.51,-1.23 -1.8,-2.17 -0.28,-0.94 -0.19,-1.93 0.26,-2.79 0.07,-0.15 1.04,-2.26 0.38,-4.12 -0.43,-1.24 -1.59,-2.29 -3.43,-3.11 -9.25,-4.16 -10.6,-12.59 -10.02,-16.47 0.3,-2.01 2.19,-3.4 4.19,-3.1 2,0.29 3.39,2.16 3.11,4.16 -0.03,0.22 -0.66,5.8 5.74,8.68 3.79,1.7 6.28,4.21 7.4,7.47 1.68,4.91 -0.58,9.42 -0.84,9.92 z"
   id="path16"
   style="fill:#f9f9f9" />
</g><path
     class="st1"
     d="m 536.28,320.01 c -2.89,1.67 -3.88,5.36 -2.21,8.25 1.12,1.94 3.15,3.02 5.24,3.02 1.02,0 2.06,-0.26 3.01,-0.81 1.01,-0.58 9.95,-6 12.39,-16.45 1.61,-6.9 -0.01,-14.07 -4.83,-21.29 -9.65,-14.48 -0.86,-25.53 -0.41,-26.08 2.14,-2.53 1.84,-6.32 -0.68,-8.48 -2.53,-2.17 -6.34,-1.88 -8.52,0.65 -5.35,6.25 -12.33,22.77 -0.44,40.61 2.87,4.3 3.92,8.26 3.13,11.76 -1.25,5.51 -6.67,8.81 -6.68,8.82 z"
     id="path17"
     style="fill:#f9f9f9" /><path
     class="st1"
     d="m 581.19,320.01 c -2.89,1.67 -3.88,5.36 -2.21,8.25 1.12,1.94 3.15,3.02 5.24,3.02 1.02,0 2.06,-0.26 3.01,-0.81 1.01,-0.58 9.95,-6 12.39,-16.45 1.61,-6.9 -0.01,-14.07 -4.83,-21.29 -9.65,-14.48 -0.86,-25.53 -0.41,-26.08 2.14,-2.53 1.84,-6.32 -0.68,-8.48 -2.53,-2.17 -6.34,-1.88 -8.52,0.65 -5.35,6.25 -12.33,22.77 -0.44,40.61 2.87,4.3 3.92,8.26 3.13,11.76 -1.24,5.51 -6.67,8.81 -6.68,8.82 z"
     id="path18"
     style="fill:#f9f9f9" /><path
     class="st1"
     d="m 380.7,422.79 c 0.55,-37.25 -28.02,-69.13 -65.06,-72.59 l -3.09,-0.29 -0.64,3.03 c -0.97,4.6 -1.5,9.31 -1.57,14 -0.55,37.22 28.02,69.1 65.05,72.57 l 3.09,0.29 0.64,-3.03 c 0.98,-4.6 1.51,-9.31 1.58,-13.98 z m -6.96,-0.11 c -0.02,1.49 -0.1,2.98 -0.23,4.48 l -24.5,-33.41 0.22,-14.68 c 0.03,-1.92 -1.51,-3.5 -3.43,-3.53 -1.92,-0.03 -3.5,1.51 -3.53,3.43 l -0.08,5.48 -19.07,-26.01 c 29.4,6.63 51.08,33.39 50.62,64.24 z M 317.3,367.05 c 0.02,-1.5 0.1,-2.99 0.23,-4.49 l 34.64,47.25 -10.13,-0.15 c -1.92,-0.03 -3.5,1.51 -3.53,3.43 -0.03,1.92 1.51,3.5 3.43,3.53 l 15.4,0.23 10.58,14.43 c -29.41,-6.64 -51.08,-33.4 -50.62,-64.23 z"
     id="path19"
     style="fill:#f9f9f9" /><g
     id="g26"
     style="fill:#f9f9f9">
	<path
   class="st3"
   d="m 450.62,465.16 -47.41,0.03 c -3.34,0 -6.04,-2.7 -6.04,-6.03 -0.01,-3.34 2.69,-6.05 6.03,-6.05 l 38.73,-0.02 c 3.21,4.12 6.16,8.19 8.69,12.07 z"
   id="path20"
   style="fill:#f9f9f9" />
	<path
   class="st3"
   d="m 460.52,513.41 c -3.39,4.9 -7.65,9.04 -12.58,12.1 h -0.01 l -41.84,0.02 c -0.01,0 -0.01,0 -0.01,0 -3.34,0 -6.04,-2.7 -6.04,-6.03 -0.01,-3.34 2.69,-6.05 6.03,-6.05 z"
   id="path21"
   style="fill:#f9f9f9" />
	<path
   class="st3"
   d="m 458.05,485.27 -65.83,0.04 c 0,0 0,0 -0.01,0 -3.33,0 -6.03,-2.7 -6.04,-6.04 0,-3.33 2.7,-6.04 6.04,-6.05 l 63.85,-0.03 c 1.11,3.83 1.8,7.88 1.99,12.08 z"
   id="path22"
   style="fill:#f9f9f9" />
	<path
   class="st3"
   d="m 462.22,492.93 c -0.54,4.23 -1.58,8.3 -3.08,12.11 l -68.42,0.74 c 0,0 0,0 -0.01,0 -3.33,0 -6.03,-2.7 -6.04,-6.04 0,-3.33 2.7,-6.04 6.04,-6.05 z"
   id="path23"
   style="fill:#f9f9f9" />
	<path
   class="st3"
   d="m 393.18,436.76 c -1.16,0.63 -2.29,1.31 -3.39,2.04 0.86,-1.02 2.04,-1.75 3.39,-2.04 z"
   id="path24"
   style="fill:#f9f9f9" />
	<path
   class="st3"
   d="m 398.63,447.44 c -0.57,0.53 -1.25,0.94 -1.99,1.2 0.65,-0.42 1.31,-0.82 1.99,-1.2 z"
   id="path25"
   style="fill:#f9f9f9" />
	<path
   class="st3"
   d="m 470.11,489.39 c 0,25.22 -14.52,47.59 -36.14,55.67 -1.91,0.78 -8.41,6.55 -13.91,12.35 l -4.62,4.88 -4.33,-5.14 c -4.46,-5.31 -11.02,-11.9 -13.29,-12.86 -20.46,-8.63 -34.21,-30.7 -34.21,-54.9 0,-21.51 10.52,-40.35 26.18,-50.59 1.1,-0.73 2.23,-1.41 3.39,-2.04 0.43,-0.1 0.88,-0.15 1.34,-0.15 3.42,0 6.2,2.78 6.2,6.21 0,1.84 -0.81,3.5 -2.09,4.62 -0.68,0.38 -1.34,0.78 -1.99,1.2 -12.54,8.02 -21.03,23.28 -21.03,40.75 0,19.44 10.8,37.06 26.88,43.85 4.07,1.72 9.51,7.01 13.45,11.26 4.35,-4.24 10.02,-9.26 13.83,-10.68 2.44,-0.91 4.76,-2.06 6.95,-3.43 h 0.01 c 4.93,-3.06 9.19,-7.2 12.58,-12.1 2.12,-3.06 3.89,-6.41 5.28,-9.98 1.5,-3.81 2.54,-7.88 3.08,-12.11 0.29,-2.23 0.44,-4.5 0.44,-6.81 0,-0.84 -0.02,-1.67 -0.06,-2.49 -0.19,-4.2 -0.88,-8.25 -1.99,-12.08 -0.1,-0.36 -0.21,-0.71 -0.32,-1.06 -0.22,-0.27 -0.41,-0.56 -0.57,-0.88 -1.28,-2.46 -2.82,-5.04 -4.55,-7.72 -2.53,-3.88 -5.48,-7.95 -8.69,-12.07 -0.61,-0.78 -1.22,-1.56 -1.84,-2.34 -15.22,-19.08 -35.15,-38.74 -42.97,-46.27 -1.78,-2.04 -3.45,-3.96 -4.97,-5.72 -0.04,-0.05 -0.09,-0.1 -0.13,-0.15 -15.8,-18.27 -9.2,-37.78 -3.44,-45.65 1.01,-1.47 8.5,-11.82 21.11,-15.76 0,0 7.48,-2.07 12.09,-1.43 0.22,0.03 0.43,0.05 0.64,0.05 6.77,0.56 13.59,3.17 20.37,7.87 8.78,6.09 13.72,13.8 14.69,22.92 1.95,18.32 -13.57,35.11 -14.23,35.82 -2.28,2.43 -6.1,2.56 -8.54,0.28 -2.43,-2.28 -2.56,-6.1 -0.28,-8.54 0.25,-0.27 12.41,-13.6 11.03,-26.32 -0.39,-3.64 -1.9,-6.89 -4.54,-9.85 -0.19,0.44 -0.42,0.87 -0.7,1.28 -2.26,3.25 -6.71,4.06 -9.96,1.8 -3.25,-2.25 -4.06,-6.71 -1.81,-9.96 0.29,-0.42 0.62,-0.79 0.98,-1.13 -4.72,-2.06 -9.31,-2.72 -13.71,-1.89 -10.52,1.98 -17.11,11.6 -17.18,11.7 l -0.17,0.24 c 0,0 -2.81,3.96 -3.79,9.74 -1.26,7.38 0.95,14.42 6.58,20.92 1.64,1.89 3.44,3.97 5.37,6.18 l 0.05,0.05 c 8.55,8.25 27.15,26.73 42.11,45.37 3.23,4.01 6.28,8.04 9.03,11.97 0.08,0.13 0.17,0.26 0.26,0.39 4.04,6.1 11.32,18.73 12,31.48 0.03,0.49 0.06,0.94 0.1,1.36 0.02,0.63 0.03,1.26 0.03,1.89 z"
   id="path26"
   style="fill:#f9f9f9" />
</g></g>
</svg>
